<mxfile host="app.diagrams.net" modified="2024-07-02T00:30:27.949Z" agent="Mozilla/5.0 (Windows NT 10.0; Win64; x64) AppleWebKit/537.36 (KHTML, like Gecko) Chrome/126.0.0.0 Safari/537.36" version="24.6.4" etag="H0tFmr-ukl3HLvJl8_XI" type="github">
  <diagram name="PÃ¡gina-1" id="Dkzcf43hIPc8UWboo8YZ">
    <mxGraphModel>
      <root>
        <mxCell id="0" />
        <mxCell id="1" parent="0" />
      </root>
    </mxGraphModel>
  </diagram>
</mxfile>
